<?xml version="1.0" encoding="UTF-8"?>
<svg id="Calque_1" xmlns="http://www.w3.org/2000/svg" version="1.1" viewBox="0 0 112 28">
  <!-- Generator: Adobe Illustrator 29.5.0, SVG Export Plug-In . SVG Version: 2.1.0 Build 137)  -->
  <defs>
    <style>
      .st0 {
        fill: #ccab21;
      }

      .st1 {
        fill: #f4d738;
      }
    </style>
  </defs>
  <rect x="2" y="2" width="110" height="26"/>
  <rect class="st1" width="84.1" height="26"/>
  <rect class="st1" x="84.1" width="25.9" height="26"/>
  <rect class="st0" x="84.1" width="26" height="26"/>
  <path class="st1" d="M85.1,9.7c0,5.8,4.8,8.9,8.4,11.7,1.2,1,2.4,1.9,3.6,1.9s2.4-.9,3.6-1.9c3.5-2.8,8.4-5.9,8.4-11.7s-6.6-10-12-4.4c-5.4-5.6-12-1.5-12,4.4Z"/>
  <g>
    <path d="M2.8,18.1V6.2h1.8v11.9h-1.8ZM3.6,8v-1.8h6.9v1.8H3.6ZM3.6,13.1v-1.8h6.1v1.8H3.6Z"/>
    <path d="M9.9,18.1l4.6-11.9h1.9l4.6,11.9h-2l-2.7-7.2c0,0,0-.3-.2-.6s-.2-.6-.3-1c-.1-.4-.2-.7-.3-1-.1-.3-.2-.5-.2-.6h.4c0,.2-.2.4-.2.7,0,.3-.2.6-.3.9s-.2.6-.3.9-.2.5-.3.7l-2.7,7.1h-1.9ZM12,15.2l.7-1.8h5.4l.8,1.8h-6.9Z"/>
    <path d="M21.9,18.1v-1.7h1.9V7.9h-1.9v-1.7h5.7v1.7h-1.9v8.5h1.9v1.7h-5.7Z"/>
    <path d="M31.9,18.1v-10.1h-3.3v-1.8h8.6v1.8h-3.4v10.1h-1.8Z"/>
    <path d="M41.5,18.1l4.6-11.9h1.9l4.6,11.9h-2l-2.7-7.2c0,0,0-.3-.2-.6,0-.3-.2-.6-.3-1-.1-.4-.2-.7-.3-1-.1-.3-.2-.5-.2-.6h.4c0,.2-.2.4-.2.7,0,.3-.2.6-.3.9s-.2.6-.3.9c-.1.3-.2.5-.3.7l-2.7,7.1h-1.9ZM43.6,15.2l.7-1.8h5.4l.8,1.8h-6.9Z"/>
    <path d="M56.2,18.1l-4.8-11.9h2.1l2.8,7.2c.1.4.3.7.4,1,.1.3.2.5.3.8,0,.2.2.5.2.7s.1.4.2.6h-.4c0-.3.2-.5.3-.8,0-.3.2-.6.3-1,.1-.4.3-.7.4-1.2l2.6-7.2h2.1l-4.8,11.9h-1.8Z"/>
    <path d="M63.9,18.1V6.2h7.5v1.8h-5.7v8.4h5.7v1.8h-7.5ZM64.7,12.9v-1.8h5.7v1.8h-5.7Z"/>
    <path d="M77.9,18.3c-.8,0-1.6-.1-2.3-.4-.7-.3-1.3-.7-1.8-1.3-.5-.5-.9-1.2-1.2-1.9s-.4-1.6-.4-2.5.1-1.6.5-2.4c.3-.7.7-1.4,1.2-1.9.5-.6,1.2-1,1.9-1.3.7-.3,1.5-.5,2.3-.5s1.1,0,1.7.3c.5.2,1,.4,1.5.7.4.3.8.7,1.1,1.1l-1.2,1.3c-.3-.3-.7-.6-1-.8-.3-.2-.7-.4-1-.5s-.7-.2-1-.2c-.6,0-1.1.1-1.6.3-.5.2-.9.5-1.3.9-.4.4-.6.8-.8,1.3-.2.5-.3,1.1-.3,1.7s0,1.2.3,1.8.5,1,.8,1.4c.4.4.8.7,1.3.9.5.2,1.1.3,1.7.3s.7,0,1.1-.2c.4-.1.7-.2,1-.4.3-.2.6-.4.9-.7l.9,1.5c-.3.3-.6.6-1.1.8-.4.2-.9.4-1.5.6s-1.1.2-1.7.2Z"/>
  </g>
</svg>
