<?xml version="1.0" encoding="UTF-8"?>
<svg id="Calque_1" data-name="Calque 1" xmlns="http://www.w3.org/2000/svg" viewBox="0 0 194.82 68.26">
  <defs>
    <style>
      .cls-1 {
        fill: #c6a932;
      }

      .cls-2 {
        fill: #f4d738;
      }
    </style>
  </defs>
  <rect x="5.26" y="5" width="189.56" height="63.26"/>
  <rect class="cls-2" y=".04" width="190" height="63.33"/>
  <rect class="cls-1" x="126.67" width="63.33" height="63.33"/>
  <g>
    <polygon points="4.91 24.65 4.91 29.31 12.13 29.31 12.13 31.81 4.91 31.81 4.91 38.96 2.32 38.96 2.32 22.16 13.21 22.16 13.21 24.65 4.91 24.65"/>
    <path d="M22.72,22.16h-2.64l-6.51,16.8h2.64l1.59-4.18h7.03l1.58,4.18h2.76l-6.45-16.8ZM18.75,32.29l1.28-3.36c.09-.27.21-.61.36-1.02.14-.41.29-.85.44-1.31.15-.46.3-.9.43-1.32.02-.07.05-.14.07-.21.01.01.01.03.02.05.14.44.3.93.48,1.46.17.52.33,1,.47,1.44.13.43.22.7.27.81l1.31,3.46h-5.13Z"/>
    <path d="M31.5,38.96v-2.4h2.71v-12h-2.71v-2.4h8.02v2.4h-2.71v12h2.71v2.4h-8.02Z"/>
    <path d="M46.79,38.96v-14.3h-4.7v-2.5h12.14v2.5h-4.85v14.3h-2.59Z"/>
    <path d="M71.53,22.16h-2.64l-6.5,16.8h2.64l1.59-4.18h7.03l1.58,4.18h2.76l-6.46-16.8ZM67.56,32.29l1.28-3.36c.1-.27.22-.61.36-1.02.15-.41.29-.85.45-1.31.15-.46.29-.9.43-1.32.02-.07.05-.14.07-.2,0,.01.01.03.01.04.15.44.31.93.48,1.46.18.52.34,1,.47,1.44.14.43.23.7.28.81l1.31,3.46h-5.14Z"/>
    <path d="M93.37,22.16l-6.77,16.8h-2.52l-6.72-16.8h2.96l4,10.2c.2.5.37.94.52,1.34.15.4.28.77.4,1.1.1.28.18.55.27.8.02-.06.04-.13.06-.19.13-.42.28-.87.45-1.37.16-.5.37-1.06.61-1.68l3.72-10.2h3.02Z"/>
    <polygon points="98.89 24.65 98.89 29.1 105.56 29.1 105.56 31.59 98.89 31.59 98.89 36.46 106.88 36.46 106.88 38.96 96.3 38.96 96.3 22.16 106.88 22.16 106.88 24.65 98.89 24.65"/>
    <path d="M117.85,39.2c-1.17,0-2.24-.21-3.22-.62-.98-.42-1.82-1.01-2.54-1.79-.72-.78-1.28-1.69-1.67-2.75-.39-1.06-.59-2.22-.59-3.48s.21-2.32.64-3.35c.42-1.03,1.01-1.94,1.76-2.72.75-.78,1.62-1.39,2.62-1.82s2.06-.65,3.22-.65c.82,0,1.61.12,2.39.37.78.25,1.48.59,2.11,1.03.63.44,1.15.94,1.55,1.5l-1.73,1.8c-.46-.46-.93-.85-1.4-1.16s-.95-.55-1.44-.71c-.49-.16-.98-.24-1.48-.24-.78,0-1.52.15-2.2.44-.68.3-1.27.71-1.78,1.24-.5.53-.9,1.16-1.19,1.88-.29.73-.43,1.52-.43,2.39,0,.91.14,1.74.42,2.48s.68,1.38,1.19,1.91c.51.53,1.12.93,1.84,1.21.71.28,1.5.42,2.36.42.53,0,1.05-.07,1.56-.22.51-.14.99-.35,1.44-.62.45-.27.86-.59,1.22-.96l1.3,2.11c-.37.43-.87.82-1.5,1.18-.63.35-1.34.63-2.11.83s-1.56.3-2.34.3Z"/>
  </g>
  <path class="cls-2" d="M135.1,25.26c0,11.3,9.34,17.32,16.18,22.71,2.41,1.9,4.74,3.69,7.06,3.69s4.65-1.79,7.06-3.69c6.84-5.39,16.18-11.41,16.18-22.71s-12.78-19.31-23.24-8.45c-10.46-10.86-23.24-2.85-23.24,8.45Z"/>
</svg>
