<?xml version="1.0" encoding="UTF-8"?>
<svg id="Calque_1" xmlns="http://www.w3.org/2000/svg" version="1.1" viewBox="0 0 140 28">
  <!-- Generator: Adobe Illustrator 29.5.0, SVG Export Plug-In . SVG Version: 2.1.0 Build 137)  -->
  <defs>
    <style>
      .st0 {
        fill: #ccab21;
      }

      .st1 {
        fill: #f4d738;
      }

      .st2 {
        fill: #0d1117;
      }
    </style>
  </defs>
  <rect x="2" y="2" width="138" height="26"/>
  <rect class="st1" width="112" height="26"/>
  <g>
    <rect class="st0" x="112" width="26" height="26"/>
    <path class="st1" d="M113,9.7c0,5.8,4.8,8.9,8.4,11.7,1.2,1,2.4,1.9,3.6,1.9s2.4-.9,3.6-1.9c3.5-2.8,8.4-5.9,8.4-11.7s-6.6-10-12-4.4c-5.4-5.6-12-1.5-12,4.4Z"/>
  </g>
  <g>
    <polygon class="st2" points="5 7.3 5 11.8 11.8 11.8 11.8 14.1 5 14.1 5 21 2.5 21 2.5 4.9 12.9 4.9 12.9 7.3 5 7.3"/>
    <path class="st2" d="M20.8,4.9h-2.5l-6.2,16h2.5l1.5-4h6.7l1.5,4h2.6l-6.1-16ZM17,14.6l1.2-3.2c0-.3.2-.6.3-1,.1-.4.3-.8.4-1.2.1-.4.3-.9.4-1.3,0,0,0-.1,0-.2,0,0,0,0,0,0,.1.4.3.9.5,1.4.2.5.3,1,.4,1.4.1.4.2.7.3.8l1.3,3.3h-4.9Z"/>
    <path class="st2" d="M28.2,21v-2.3h2.6V7.2h-2.6v-2.3h7.6v2.3h-2.6v11.4h2.6v2.3h-7.6Z"/>
    <path class="st2" d="M41.6,21V7.3h-4.5v-2.4h11.6v2.4h-4.6v13.6h-2.5Z"/>
    <path class="st2" d="M63.3,4.9h-2.5l-6.2,16h2.5l1.5-4h6.7l1.5,4h2.6l-6.1-16ZM59.5,14.6l1.2-3.2c0-.3.2-.6.3-1,.1-.4.3-.8.4-1.2.1-.4.3-.9.4-1.3,0,0,0-.1,0-.2,0,0,0,0,0,0,.1.4.3.9.5,1.4s.3,1,.4,1.4c.1.4.2.7.3.8l1.3,3.3h-4.9Z"/>
    <path class="st2" d="M83.1,4.9l-6.5,16h-2.4l-6.4-16h2.8l3.8,9.7c.2.5.3.9.5,1.3.1.4.3.7.4,1,0,.3.2.5.3.8,0,0,0-.1,0-.2.1-.4.3-.8.4-1.3.2-.5.3-1,.6-1.6l3.6-9.7h2.9Z"/>
    <polygon class="st2" points="87.1 7.3 87.1 11.6 93.5 11.6 93.5 13.9 87.1 13.9 87.1 18.6 94.7 18.6 94.7 21 84.6 21 84.6 4.9 94.7 4.9 94.7 7.3 87.1 7.3"/>
    <path class="st2" d="M103.5,21.2c-1.1,0-2.1-.2-3.1-.6-.9-.4-1.7-1-2.4-1.7-.7-.7-1.2-1.6-1.6-2.6s-.6-2.1-.6-3.3.2-2.2.6-3.2c.4-1,1-1.8,1.7-2.6.7-.7,1.5-1.3,2.5-1.7.9-.4,2-.6,3.1-.6s1.5.1,2.3.4c.7.2,1.4.6,2,1,.6.4,1.1.9,1.5,1.4l-1.6,1.7c-.4-.4-.9-.8-1.3-1.1-.5-.3-.9-.5-1.4-.7s-.9-.2-1.4-.2c-.7,0-1.4.1-2.1.4-.6.3-1.2.7-1.7,1.2-.5.5-.9,1.1-1.1,1.8-.3.7-.4,1.5-.4,2.3s.1,1.7.4,2.4.6,1.3,1.1,1.8c.5.5,1.1.9,1.8,1.2.7.3,1.4.4,2.3.4s1,0,1.5-.2c.5-.1.9-.3,1.4-.6.4-.3.8-.6,1.2-.9l1.2,2c-.4.4-.8.8-1.4,1.1-.6.3-1.3.6-2,.8s-1.5.3-2.2.3Z"/>
  </g>
</svg>
