<?xml version="1.0" encoding="UTF-8"?>
<svg id="Calque_1" data-name="Calque 1" xmlns="http://www.w3.org/2000/svg" viewBox="0 0 194.82 68.26">
  <defs>
    <style>
      .cls-1 {
        fill: #c6a932;
      }

      .cls-2 {
        fill: #f4d738;
      }
    </style>
  </defs>
  <path d="M170.45,32.67h-8.79l2.19-5.75c.17-.47.37-1.05.62-1.75.25-.7.5-1.44.76-2.24.26-.79.51-1.55.74-2.26.04-.12.08-.23.12-.34,0,.02.01.05.02.07.25.76.52,1.59.83,2.49.3.9.56,1.73.8,2.47.23.74.39,1.2.47,1.39l2.24,5.92Z"/>
  <path d="M5.26,5v63.25h189.56V5H5.26ZM141.08,39.99h4.65v-20.55h-4.65v-4.11h13.73v4.11h-4.64v20.55h4.22l9.55-24.66h4.52l11.05,28.77h-4.73l-2.71-7.15h-12.03l-2.72,7.15h-16.24v-4.11Z"/>
  <path class="cls-2" d="M170.45,32.67h-8.79l2.19-5.75c.17-.47.37-1.05.62-1.75.25-.7.5-1.44.76-2.24.26-.79.51-1.55.74-2.26.04-.12.08-.23.12-.34,0,.02.01.05.02.07.25.76.52,1.59.83,2.49.3.9.56,1.73.8,2.47.23.74.39,1.2.47,1.39l2.24,5.92Z"/>
  <path class="cls-2" d="M0,.03v63.34h190V.03H0ZM141.08,19.44v-4.11h13.73v4.11h-4.64v20.55h4.22l9.55-24.66h4.52l11.05,28.77h-4.73l-2.71-7.15h-12.03l-2.72,7.15h-16.24v-4.11h4.65v-20.55h-4.65Z"/>
  <path class="cls-1" d="M168.21,26.75l2.24,5.92h-8.79l2.19-5.75c.17-.47.37-1.05.62-1.75.25-.7.5-1.44.76-2.24.26-.79.51-1.55.74-2.26.04-.12.08-.23.12-.34,0,.02.01.05.02.07.25.76.52,1.59.83,2.49.3.9.56,1.73.8,2.47.23.74.39,1.2.47,1.39Z"/>
  <path class="cls-1" d="M126.67,0v63.33h63.33V0h-63.33ZM174.78,44.1l-2.71-7.15h-12.03l-2.72,7.15h-16.24v-4.11h4.65v-20.55h-4.65v-4.11h13.73v4.11h-4.64v20.55h4.22l9.55-24.66h4.52l11.05,28.77h-4.73Z"/>
  <g>
    <path d="M8.66,36.92c-.74,0-1.42-.13-2.05-.4s-1.17-.65-1.63-1.13c-.47-.48-.83-1.05-1.08-1.71-.25-.65-.38-1.37-.38-2.15s.13-1.5.38-2.15.61-1.23,1.08-1.71c.46-.49,1.01-.86,1.63-1.13s1.31-.4,2.05-.4,1.42.13,2.05.4c.62.27,1.17.65,1.63,1.14.47.49.83,1.06,1.08,1.72.25.66.38,1.37.38,2.14s-.13,1.48-.38,2.14c-.25.65-.61,1.23-1.08,1.72-.46.49-1.01.87-1.63,1.14-.62.27-1.31.4-2.05.4ZM8.66,35.34c.51,0,.98-.1,1.4-.29.42-.19.79-.46,1.1-.8.31-.34.55-.75.73-1.21.17-.46.26-.97.26-1.52s-.09-1.06-.26-1.52c-.18-.46-.42-.87-.73-1.21-.31-.35-.68-.61-1.1-.8-.43-.19-.89-.29-1.4-.29s-.98.1-1.4.29c-.43.19-.79.46-1.11.79-.31.34-.56.74-.73,1.21-.17.47-.25.98-.25,1.54s.08,1.06.25,1.53c.17.47.41.88.73,1.22s.68.6,1.11.79c.42.19.89.29,1.4.29Z"/>
    <path d="M16,36.77v-10.5h4.27c.57,0,1.09.14,1.55.43.47.28.84.67,1.12,1.16.28.49.42,1.04.42,1.64s-.14,1.15-.42,1.63c-.28.49-.65.88-1.12,1.18-.46.29-.98.44-1.55.44h-2.66v4.02h-1.62ZM17.62,31.19h2.62c.27,0,.52-.08.74-.23.22-.15.4-.36.53-.62.14-.25.2-.54.2-.85s-.07-.59-.2-.84c-.13-.25-.31-.45-.53-.6-.22-.15-.47-.23-.74-.23h-2.62v3.36Z"/>
    <path d="M27.5,36.77v-8.94h-2.94v-1.56h7.59v1.56h-3.03v8.94h-1.62Z"/>
    <path d="M33.76,36.77v-1.5h1.69v-7.5h-1.69v-1.5h5.01v1.5h-1.69v7.5h1.69v1.5h-5.01Z"/>
    <path d="M51.34,26.26v10.5h-1.62v-4.3c0-.9.02-1.71.07-2.43.02-.35.05-.7.09-1.05l-3.09,4.77h-.99l-3.01-4.75c.04.31.06.62.08.94.05.71.07,1.55.07,2.52v4.3h-1.62v-10.5h1.59l3.44,5.61,3.49-5.61h1.5Z"/>
    <path d="M53.89,36.77v-1.5h1.69v-7.5h-1.69v-1.5h5.01v1.5h-1.69v7.5h1.69v1.5h-5.01Z"/>
    <path d="M64.69,36.92c-.57,0-1.1-.07-1.58-.23-.48-.15-.92-.38-1.32-.68-.4-.31-.75-.68-1.06-1.13l1.11-1.27c.49.7.96,1.19,1.41,1.46s.98.4,1.6.4c.38,0,.73-.06,1.04-.18.31-.12.55-.29.73-.5s.27-.45.27-.72c0-.18-.03-.35-.09-.51-.06-.16-.15-.31-.28-.44s-.28-.25-.48-.36c-.19-.11-.42-.21-.68-.29-.26-.08-.56-.16-.9-.22-.54-.11-1.01-.25-1.41-.44-.4-.18-.74-.4-1.01-.67s-.47-.58-.6-.92c-.13-.35-.2-.73-.2-1.16s.09-.81.28-1.17c.18-.36.44-.67.76-.94s.71-.47,1.15-.62c.44-.14.92-.22,1.43-.22.54,0,1.03.07,1.48.21s.85.35,1.2.62c.35.27.64.61.87,1.01l-1.14,1.12c-.2-.33-.43-.61-.68-.83-.25-.22-.52-.39-.82-.51-.3-.11-.62-.17-.96-.17-.39,0-.73.06-1.02.18-.29.12-.52.29-.68.5-.17.22-.25.47-.25.76,0,.21.04.4.12.58.08.18.2.33.37.47.17.13.39.25.67.36.28.1.62.2,1.01.28.55.12,1.04.27,1.47.46.43.19.79.4,1.1.65.3.25.53.53.68.84.15.31.23.65.23,1,0,.67-.16,1.25-.47,1.74s-.75.87-1.32,1.13c-.57.27-1.25.4-2.04.4Z"/>
    <path d="M75.55,22.96l-2.75,1.7.42.78,3.03-1.13-.7-1.35Z"/>
    <polygon points="72.43 27.82 72.43 30.6 76.6 30.6 76.6 32.16 72.43 32.16 72.43 35.2 77.42 35.2 77.42 36.76 70.81 36.76 70.81 26.26 77.42 26.26 77.42 27.82 72.43 27.82"/>
    <path d="M88.84,26.26h-1.65l-4.07,10.5h1.65l.99-2.61h4.4l.99,2.61h1.72l-4.03-10.5ZM86.36,32.59l.8-2.1c.06-.17.13-.38.22-.64.09-.25.19-.52.28-.81.1-.29.19-.57.27-.83.01-.04.03-.08.04-.12t.01.02c.09.28.19.58.3.91s.21.63.3.9c.08.27.14.44.17.51l.82,2.16h-3.21Z"/>
    <path d="M102.49,26.26l-4.23,10.5h-1.58l-4.2-10.5h1.85l2.5,6.38c.12.31.23.59.33.84.09.25.17.47.24.68.06.17.12.35.17.51,0-.04.03-.08.04-.13.08-.26.18-.54.28-.85.11-.31.23-.66.38-1.05l2.33-6.38h1.89Z"/>
    <polygon points="105.94 27.82 105.94 30.6 110.11 30.6 110.11 32.16 105.94 32.16 105.94 35.2 110.93 35.2 110.93 36.76 104.32 36.76 104.32 26.26 110.93 26.26 110.93 27.82 105.94 27.82"/>
    <path d="M117.79,36.92c-.73,0-1.4-.13-2.01-.39-.61-.26-1.14-.63-1.59-1.12s-.8-1.06-1.04-1.72c-.25-.66-.37-1.38-.37-2.17s.13-1.45.4-2.09c.27-.65.63-1.21,1.1-1.7.47-.49,1.01-.87,1.64-1.14.62-.27,1.29-.4,2.01-.4.51,0,1.01.08,1.49.23.49.16.92.37,1.32.65.39.27.72.59.97.94l-1.08,1.12c-.29-.29-.58-.53-.88-.73s-.59-.34-.9-.44c-.3-.1-.61-.15-.92-.15-.49,0-.95.09-1.37.28s-.79.44-1.11.77c-.32.33-.56.72-.74,1.18-.18.46-.27.95-.27,1.49,0,.57.09,1.09.26,1.55.17.46.42.86.74,1.19s.7.58,1.15.76c.45.18.94.26,1.48.26.33,0,.66-.04.97-.14.32-.09.62-.22.9-.39s.54-.37.76-.6l.81,1.32c-.23.27-.54.52-.94.73-.4.22-.83.39-1.32.52s-.97.19-1.46.19Z"/>
  </g>
  <path d="M168.46,15.33h-4.52l-9.55,24.66h-4.22v-20.55h4.64v-4.11h-13.73v4.11h4.65v20.55h-4.65v4.11h16.24l2.72-7.15h12.03l2.71,7.15h4.73l-11.05-28.77ZM161.66,32.67l2.19-5.75c.17-.47.37-1.05.62-1.75.25-.7.5-1.44.76-2.24.26-.79.51-1.55.74-2.26.04-.12.08-.23.12-.34,0,.02.01.05.02.07.25.76.52,1.59.83,2.49.3.9.56,1.73.8,2.47.23.74.39,1.2.47,1.39l2.24,5.92h-8.79Z"/>
</svg>
