<?xml version="1.0" encoding="UTF-8"?>
<svg id="Calque_1" xmlns="http://www.w3.org/2000/svg" version="1.1" viewBox="0 0 140 28">
  <!-- Generator: Adobe Illustrator 29.5.0, SVG Export Plug-In . SVG Version: 2.1.0 Build 137)  -->
  <defs>
    <style>
      .st0 {
        fill: #ccab21;
      }

      .st1 {
        fill: #f4d738;
      }
    </style>
  </defs>
  <rect x="2" y="2" width="138" height="26"/>
  <rect class="st1" width="112" height="26"/>
  <g>
    <rect class="st0" x="112" width="26" height="26"/>
    <path d="M128.9,5h-2.5l-5.3,13.7h-1V7.3h2.6v-2.3h-7.6v2.3h2.6v11.4h-2.6v2.3h7.7l1.5-4h6.7l1.5,4h2.6l-6.1-16ZM125.1,14.7l1.2-3.2c0-.3.2-.6.3-1,.1-.4.3-.8.4-1.2.1-.4.3-.9.4-1.3,0,0,0-.1,0-.2,0,0,0,0,0,0,.1.4.3.9.5,1.4.2.5.3,1,.4,1.4.1.4.2.7.3.8l1.2,3.3h-4.9Z"/>
  </g>
  <g>
    <path d="M7.4,19.3c-.8,0-1.5-.1-2.2-.4-.7-.3-1.2-.7-1.7-1.2s-.9-1.1-1.1-1.8c-.3-.7-.4-1.4-.4-2.3s.1-1.6.4-2.3c.3-.7.6-1.3,1.1-1.8s1.1-.9,1.7-1.2,1.4-.4,2.2-.4,1.5.1,2.2.4,1.2.7,1.7,1.2.9,1.1,1.1,1.8c.3.7.4,1.4.4,2.2s-.1,1.6-.4,2.2c-.3.7-.6,1.3-1.1,1.8-.5.5-1.1.9-1.7,1.2-.7.3-1.4.4-2.2.4ZM7.4,17.7c.5,0,1-.1,1.5-.3.4-.2.8-.5,1.2-.8.3-.4.6-.8.8-1.3.2-.5.3-1,.3-1.6s0-1.1-.3-1.6c-.2-.5-.4-.9-.8-1.3-.3-.4-.7-.6-1.2-.8-.4-.2-.9-.3-1.5-.3s-1,.1-1.5.3c-.4.2-.8.5-1.2.8-.3.4-.6.8-.8,1.3-.2.5-.3,1-.3,1.6s0,1.1.3,1.6c.2.5.4.9.8,1.3.3.4.7.6,1.2.8.4.2.9.3,1.5.3Z"/>
    <path d="M14.6,19.2v-11h4.5c.6,0,1.1.2,1.6.4.5.3.9.7,1.2,1.2.3.5.4,1.1.4,1.7s-.1,1.2-.4,1.7c-.3.5-.7.9-1.2,1.2-.5.3-1,.5-1.6.5h-2.8v4.2h-1.7ZM16.3,13.3h2.8c.3,0,.5,0,.8-.2.2-.2.4-.4.6-.6.1-.3.2-.6.2-.9s0-.6-.2-.9c-.1-.3-.3-.5-.6-.6-.2-.2-.5-.2-.8-.2h-2.8v3.5Z"/>
    <path d="M26.2,19.2v-9.4h-3.1v-1.6h8v1.6h-3.2v9.4h-1.7Z"/>
    <path d="M32.3,19.2v-1.6h1.8v-7.9h-1.8v-1.6h5.3v1.6h-1.8v7.9h1.8v1.6h-5.3Z"/>
    <path d="M50.3,8.1v11h-1.7v-4.5c0-.9,0-1.8,0-2.6,0-.4,0-.7,0-1.1l-3.2,5h-1l-3.2-5c0,.3,0,.7,0,1,0,.7,0,1.6,0,2.6v4.5h-1.7v-11h1.7l3.6,5.9,3.7-5.9h1.6Z"/>
    <path d="M52.4,19.2v-1.6h1.8v-7.9h-1.8v-1.6h5.3v1.6h-1.8v7.9h1.8v1.6h-5.3Z"/>
    <path d="M63.3,19.3c-.6,0-1.2,0-1.7-.2s-1-.4-1.4-.7c-.4-.3-.8-.7-1.1-1.2l1.2-1.3c.5.7,1,1.2,1.5,1.5.5.3,1,.4,1.7.4s.8,0,1.1-.2c.3-.1.6-.3.8-.5.2-.2.3-.5.3-.8s0-.4,0-.5c0-.2-.2-.3-.3-.5-.1-.1-.3-.3-.5-.4s-.4-.2-.7-.3c-.3,0-.6-.2-.9-.2-.6-.1-1.1-.3-1.5-.5-.4-.2-.8-.4-1.1-.7s-.5-.6-.6-1c-.1-.4-.2-.8-.2-1.2s0-.9.3-1.2.5-.7.8-1,.7-.5,1.2-.6c.5-.2,1-.2,1.5-.2s1.1,0,1.6.2c.5.1.9.4,1.3.7.4.3.7.6.9,1.1l-1.2,1.2c-.2-.3-.4-.6-.7-.9-.3-.2-.6-.4-.9-.5-.3-.1-.7-.2-1-.2s-.8,0-1.1.2c-.3.1-.5.3-.7.5-.2.2-.3.5-.3.8s0,.4.1.6.2.3.4.5c.2.1.4.3.7.4.3.1.6.2,1.1.3.6.1,1.1.3,1.5.5.5.2.8.4,1.2.7s.6.6.7.9c.2.3.2.7.2,1.1,0,.7-.2,1.3-.5,1.8-.3.5-.8.9-1.4,1.2-.6.3-1.3.4-2.1.4Z"/>
    <path d="M74.2,4.7l-2.9,1.8.4.8,3.2-1.2-.7-1.4Z"/>
    <polygon points="70.9 9.8 70.9 12.7 75.3 12.7 75.3 14.3 70.9 14.3 70.9 17.5 76.2 17.5 76.2 19.2 69.3 19.2 69.3 8.1 76.2 8.1 76.2 9.8 70.9 9.8"/>
    <path d="M82.4,19.2v-11h4.5c.6,0,1.1.2,1.6.4.5.3.9.7,1.2,1.2.3.5.4,1.1.4,1.7s-.1,1.2-.4,1.7c-.3.5-.7.9-1.2,1.2s-1,.5-1.6.5h-2.8v4.2h-1.7ZM84.1,13.3h2.8c.3,0,.5,0,.8-.2.2-.2.4-.4.6-.6.1-.3.2-.6.2-.9s0-.6-.2-.9c-.1-.3-.3-.5-.6-.6s-.5-.2-.8-.2h-2.8v3.5Z"/>
    <path d="M95.7,8.1h-1.7l-4.3,11h1.7l1-2.7h4.6l1,2.7h1.8l-4.2-11ZM93.1,14.8l.8-2.2c0-.2.1-.4.2-.7,0-.3.2-.6.3-.9,0-.3.2-.6.3-.9,0,0,0,0,0-.1,0,0,0,0,0,0,0,.3.2.6.3.9.1.4.2.7.3.9,0,.3.1.5.2.5l.9,2.3h-3.4Z"/>
    <path d="M107.4,14.7c.1,0,.3-.1.4-.2.5-.3.9-.7,1.3-1.2.3-.5.5-1.1.5-1.7s-.2-1.3-.5-1.8c-.3-.5-.7-.9-1.3-1.3-.5-.3-1.1-.5-1.7-.5h-4.7v11h1.7v-4.1h2.5l2.3,4.1h2.1s-2.6-4.4-2.6-4.4ZM103.1,9.8h2.7c.4,0,.7,0,1,.2.3.2.6.4.7.7.2.3.3.6.3,1s0,.6-.2.9c-.1.3-.3.5-.6.6-.2.1-.5.2-.8.2h-3.2v-3.6Z"/>
  </g>
</svg>
